<svg id="Layer_1" data-name="Layer 1" xmlns="http://www.w3.org/2000/svg" viewBox="0 0 500 500"><defs><style>.cls-1{fill:#88cc12;}.cls-2{fill:#7cb212;}.cls-3{fill:#6d9311;}.cls-4{fill:#934c12;}.cls-5{fill:#7f4011;}.cls-6{fill:none;stroke:#000;stroke-linecap:round;stroke-linejoin:round;stroke-width:15px;}</style></defs><title>bottle</title><path class="cls-1" d="M128.9,428.92a48.4,48.4,0,0,0,40.35-21.64h0a48.43,48.43,0,0,0,80.69,0h0a48.67,48.67,0,0,0,21.75,17.92l40.44-85.86a71.19,71.19,0,0,0-12.64-79.22L341.06,172,294,149.86,252.5,238a71.2,71.2,0,0,0-69.12,40.71L113.75,426.49A48.37,48.37,0,0,0,128.9,428.92Z"/><path class="cls-2" d="M341.06,172,313,158.81l-36.71,75.26a51.11,51.11,0,0,0-.19,44.37,71,71,0,0,1,.12,60.9l-37.66,80a48.61,48.61,0,0,0,11.43-12h0a48.67,48.67,0,0,0,21.75,17.92l40.44-85.86a71.19,71.19,0,0,0-12.64-79.22Z"/><rect class="cls-2" x="287.92" y="126.46" width="74.63" height="36.22" transform="translate(92.6 -124.8) rotate(25.22)"/><rect class="cls-3" x="326.32" y="137.49" width="36.22" height="32.22" transform="translate(58.71 399.75) rotate(-64.78)"/><polygon class="cls-4" points="382.5 98.5 324.28 71.08 311.23 118.2 354.49 138.58 382.5 98.5"/><polygon class="cls-5" points="357.32 86.65 330.87 127.46 354.49 138.58 382.5 98.5 357.32 86.65"/><polygon class="cls-6" points="382.5 98.5 324.28 71.08 311.23 118.2 354.49 138.58 382.5 98.5"/><rect class="cls-6" x="287.92" y="126.46" width="74.63" height="36.22" transform="translate(92.6 -124.8) rotate(25.22)"/><path class="cls-6" d="M7.83,407.28a48.43,48.43,0,0,0,80.69,0h0a48.43,48.43,0,0,0,80.69,0h0a48.43,48.43,0,0,0,80.69,0h0a48.43,48.43,0,0,0,80.69,0h0a48.43,48.43,0,0,0,80.69,0h0a48.43,48.43,0,0,0,80.69,0"/><path class="cls-6" d="M128.9,428.92a48.4,48.4,0,0,0,40.35-21.64h0a48.43,48.43,0,0,0,80.69,0h0a48.67,48.67,0,0,0,21.75,17.92l40.44-85.86a71.19,71.19,0,0,0-12.64-79.22L341.06,172,294,149.86,252.5,238a71.2,71.2,0,0,0-69.12,40.71L113.75,426.49A48.37,48.37,0,0,0,128.9,428.92Z"/></svg>