<svg id="Layer_1" data-name="Layer 1" xmlns="http://www.w3.org/2000/svg" viewBox="0 0 500 500"><defs><style>.cls-1{fill:#88cc12;}.cls-2{fill:#7cb212;}.cls-3{fill:#fcd32b;}.cls-4{fill:#eab671;}.cls-5{fill:#c99965;}.cls-6{fill:#e51c5a;}.cls-7{fill:none;stroke:#000;stroke-linecap:round;stroke-linejoin:round;stroke-width:15px;}</style></defs><title>coconut</title><path class="cls-1" d="M250,240.75c-75.9,0-144.28-13.68-192.32-35.54a242.59,242.59,0,0,0-8.53,64c0,122.29,89.92,221.43,200.85,221.43s200.85-99.14,200.85-221.43a242.59,242.59,0,0,0-8.53-64C394.28,227.07,325.9,240.75,250,240.75Z"/><path class="cls-2" d="M442.32,205.21A324.78,324.78,0,0,1,401,220.49h0c5.54,20.27,4.89,26.46,4.89,48.72,0,113.91-78,207.7-178.35,220a183.93,183.93,0,0,0,22.5,1.39c110.93,0,200.85-99.14,200.85-221.43A242.59,242.59,0,0,0,442.32,205.21Z"/><path class="cls-3" d="M106.89,62.45l44.44-15.72,24.92,83.78h30.06L174.63,24A14.4,14.4,0,0,0,156,14.51L97.29,35.28a14.41,14.41,0,0,0,9.6,27.17Z"/><path class="cls-4" d="M442.32,205.21l-65.8-74.7h-253l-65.8,74.7c48,21.86,116.42,35.54,192.32,35.54S394.28,227.07,442.32,205.21Z"/><path class="cls-5" d="M442.32,205.21l-65.8-74.7h-45l69.44,90A324.78,324.78,0,0,0,442.32,205.21Z"/><polygon class="cls-6" points="450.85 100.75 408.51 9.35 307.78 10.5 450.85 100.75"/><path class="cls-7" d="M250,240.75c-75.9,0-144.28-13.68-192.32-35.54a242.59,242.59,0,0,0-8.53,64c0,122.29,89.92,221.43,200.85,221.43s200.85-99.14,200.85-221.43a242.59,242.59,0,0,0-8.53-64C394.28,227.07,325.9,240.75,250,240.75Z"/><path class="cls-7" d="M442.32,205.21l-65.8-74.7h-253l-65.8,74.7c48,21.86,116.42,35.54,192.32,35.54S394.28,227.07,442.32,205.21Z"/><line class="cls-7" x1="332.08" y1="130.51" x2="379.32" y2="55.62"/><polygon class="cls-7" points="450.85 100.75 408.51 9.35 307.78 10.5 450.85 100.75"/><path class="cls-7" d="M106.89,62.45l44.44-15.72,24.92,83.78h30.06L174.63,24A14.4,14.4,0,0,0,156,14.51L97.29,35.28a14.41,14.41,0,0,0,9.6,27.17Z"/></svg>