<svg id="Layer_1" data-name="Layer 1" xmlns="http://www.w3.org/2000/svg" viewBox="0 0 500 500"><defs><style>.cls-1{fill:#fff;}.cls-2{fill:#513b2c;}.cls-3{opacity:0.15;}.cls-4{fill:#faae3b;}.cls-5{fill:none;stroke:#000;stroke-linecap:round;stroke-linejoin:round;stroke-width:20px;}</style></defs><title>coffee-pot</title><path class="cls-1" d="M90,446.67H326.78a197.49,197.49,0,0,0,79.39-158.44C406.17,179,317.62,90.46,208.4,90.46S10.63,179,10.63,288.23A197.48,197.48,0,0,0,90,446.67Z"/><path class="cls-2" d="M14.89,328.83A197.73,197.73,0,0,0,90,446.67H326.78a197.79,197.79,0,0,0,75.13-117.84Z"/><path class="cls-3" d="M208.4,90.46a200.21,200.21,0,0,0-23.76,1.47c98,11.74,174,95.12,174,196.3a197.46,197.46,0,0,1-79.39,158.44h47.52a197.49,197.49,0,0,0,79.39-158.44C406.17,179,317.62,90.46,208.4,90.46Z"/><path class="cls-4" d="M380.37,100.47H76.23v40.06l304.14-.22h0a69.19,69.19,0,0,1,69.38,69.16v96.09a19.81,19.81,0,0,0,39.62,0V209.47A109,109,0,0,0,380.37,100.47Z"/><g class="cls-3"><path d="M380.37,100.47H332.86a108.92,108.92,0,0,1,98,61.5,69.07,69.07,0,0,1,18.9,47.5v96.09a19.81,19.81,0,0,0,39.62,0V209.47A109,109,0,0,0,380.37,100.47Z"/><polygon points="332.85 100.47 332.86 100.47 332.85 100.47 332.85 100.47"/></g><path class="cls-1" d="M34.81,53.33H326.57a0,0,0,0,1,0,0v47.14a0,0,0,0,1,0,0H77A42.19,42.19,0,0,1,34.81,58.28v-5a0,0,0,0,1,0,0Z"/><rect class="cls-3" x="279.05" y="53.33" width="47.52" height="47.14"/><line class="cls-5" x1="85.65" y1="233.19" x2="146.33" y2="233.19"/><line class="cls-5" x1="115.99" y1="199.73" x2="146.33" y2="199.73"/><line class="cls-5" x1="85.65" y1="296.85" x2="146.33" y2="296.85"/><line class="cls-5" x1="115.99" y1="263.39" x2="146.33" y2="263.39"/><path class="cls-5" d="M14.89,328.83A197.73,197.73,0,0,0,90,446.67H326.78a197.79,197.79,0,0,0,75.13-117.84Z"/><path class="cls-5" d="M380.37,100.47H76.23v40.06l304.14-.22h0a69.19,69.19,0,0,1,69.38,69.16v96.09a19.81,19.81,0,0,0,39.62,0V209.47A109,109,0,0,0,380.37,100.47Z"/><path class="cls-5" d="M34.81,53.33H326.57a0,0,0,0,1,0,0v47.14a0,0,0,0,1,0,0H77A42.19,42.19,0,0,1,34.81,58.28v-5a0,0,0,0,1,0,0Z"/><path class="cls-5" d="M339.65,140.31H77.14A197.78,197.78,0,0,0,90,446.67H326.78a197.76,197.76,0,0,0,12.87-306.36Z"/></svg>