<svg id="Layer_1" data-name="Layer 1" xmlns="http://www.w3.org/2000/svg" viewBox="0 0 500 500"><defs><style>.cls-1{fill:#fff;}.cls-2{fill:#f8e6c5;}.cls-3{opacity:0.15;}.cls-4,.cls-6{fill:none;stroke:#000;stroke-linecap:round;stroke-linejoin:round;}.cls-4{stroke-width:20px;}.cls-5{fill:#faae3b;}.cls-6{stroke-width:20px;}</style></defs><title>coffee-drink</title><path class="cls-1" d="M281.45,11.21a42.71,42.71,0,0,1-32.9,15.45,42.62,42.62,0,0,1-32.34-14.85C156.78,26.89,112.76,80.57,112.76,144.68A137.24,137.24,0,1,0,281.45,11.21Z"/><polygon class="cls-2" points="347.11 488.79 152.89 488.79 116.96 216.46 383.04 216.46 347.11 488.79"/><polygon class="cls-3" points="334.75 216.46 298.83 488.79 347.11 488.79 383.04 216.46 334.75 216.46"/><rect class="cls-2" x="97.47" y="165.38" width="305.07" height="51.66"/><rect class="cls-3" x="354.25" y="165.38" width="48.29" height="51.66"/><path class="cls-4" d="M142.49,165.38s-.91-53.31,23.69-60.21,107.38,63.51,188.43,60.21Z"/><path class="cls-4" d="M219,123.92s71.84-17,92.53-25.65,51.74-5.47,43.11,67.11C354.61,165.38,273.45,156.91,219,123.92Z"/><path class="cls-4" d="M177,104.69s71.56-9.8,71.56-53c0,0,57.78-2.93,73.3,43.64L219,123.92Z"/><circle class="cls-5" cx="252.66" cy="334.24" r="52.31"/><path class="cls-3" d="M273.19,286.12a52.32,52.32,0,0,1-68.65,68.64,52.31,52.31,0,1,0,68.65-68.64Z"/><path class="cls-3" d="M248.55,51.71s64.93,64.76,66.08,113.67h40s15.6-70.27-27.33-70.49C327.28,94.89,304.34,46.63,248.55,51.71Z"/><polygon class="cls-4" points="347.11 488.79 152.89 488.79 116.96 217.04 383.04 217.04 347.11 488.79"/><rect class="cls-6" x="97.47" y="165.38" width="305.07" height="51.66"/><circle class="cls-6" cx="252.66" cy="334.24" r="52.31"/><path class="cls-6" d="M385.67,165.49A137.23,137.23,0,0,0,281.45,11.21a42.71,42.71,0,0,1-32.9,15.45,42.62,42.62,0,0,1-32.34-14.85C156.78,26.89,112.76,80.57,112.76,144.68a138.49,138.49,0,0,0,1.57,20.81Z"/></svg>