<svg id="Layer_1" data-name="Layer 1" xmlns="http://www.w3.org/2000/svg" viewBox="0 0 500 500"><defs><style>.cls-1{fill:#3066b5;}.cls-2{fill:#285993;}.cls-3{fill:#eaeaea;}.cls-4{fill:#fff;}.cls-5{fill:#cecece;}.cls-6{fill:none;stroke:#000;stroke-linecap:round;stroke-linejoin:round;stroke-width:15px;}.cls-7{fill:#e51c5a;}</style></defs><title>cruise</title><path class="cls-1" d="M176.08,214.46H323.92a16.26,16.26,0,0,1,16.26,16.26v39.21a0,0,0,0,1,0,0H159.82a0,0,0,0,1,0,0V230.72A16.26,16.26,0,0,1,176.08,214.46Z"/><path class="cls-2" d="M323.92,214.46h-36a16.26,16.26,0,0,1,16.26,16.26v39.21h36V230.72A16.26,16.26,0,0,0,323.92,214.46Z"/><polygon class="cls-3" points="250 305.53 372.24 333.74 372.24 269.93 127.76 269.93 127.76 333.74 250 305.53"/><polygon class="cls-4" points="372.24 272.36 372.24 269.93 352.53 269.93 304.38 318.08 322.37 322.23 372.24 272.36"/><polygon class="cls-4" points="337.45 269.93 324.42 269.93 281.54 312.81 292.13 315.25 337.45 269.93"/><polygon class="cls-4" points="183.89 320.79 234.75 269.93 203.19 269.93 142.87 330.25 183.89 320.79"/><rect class="cls-3" x="225.16" y="146.16" width="49.67" height="68.3"/><path class="cls-1" d="M145.86,470.3l.09.05a48.61,48.61,0,0,0,23.3-18.53h0a48.43,48.43,0,0,0,80.69,0h0a48.43,48.43,0,0,0,80.69,0h0a48.61,48.61,0,0,0,23.3,18.53l.09-.05c52.38-34.9,52.13-128.71,52.13-128.71L250,305.53,93.73,341.59S93.48,435.4,145.86,470.3Z"/><path class="cls-2" d="M366.41,332.39c-1.46,32.46-7.68,90.74-32.84,123.23a48.61,48.61,0,0,0,20.48,14.73l.09-.05c52.38-34.9,52.13-128.71,52.13-128.71Z"/><path class="cls-3" d="M250,357l150.12,34.64a249.29,249.29,0,0,0,6.15-50.06L250,305.53,93.73,341.59a249.29,249.29,0,0,0,6.15,50.06Z"/><path class="cls-5" d="M366.41,332.39a402.15,402.15,0,0,1-5.32,50.25l39,9a249.29,249.29,0,0,0,6.15-50.06Z"/><path class="cls-6" d="M250,357l150.12,34.64a249.29,249.29,0,0,0,6.15-50.06L250,305.53,93.73,341.59a249.29,249.29,0,0,0,6.15,50.06Z"/><path class="cls-6" d="M7.83,451.82a48.43,48.43,0,0,0,80.69,0h0a48.43,48.43,0,0,0,80.69,0h0a48.43,48.43,0,0,0,80.69,0h0a48.43,48.43,0,0,0,80.69,0h0a48.43,48.43,0,0,0,80.69,0h0a48.43,48.43,0,0,0,80.69,0"/><path class="cls-6" d="M176.08,214.46H323.92a16.26,16.26,0,0,1,16.26,16.26v39.21a0,0,0,0,1,0,0H159.82a0,0,0,0,1,0,0V230.72A16.26,16.26,0,0,1,176.08,214.46Z"/><rect class="cls-6" x="225.16" y="146.16" width="49.67" height="68.3"/><rect class="cls-7" x="225.16" y="146.16" width="49.67" height="34.15"/><rect class="cls-6" x="225.16" y="146.16" width="49.67" height="34.15"/><polygon class="cls-6" points="250 305.53 372.24 333.74 372.24 269.93 127.76 269.93 127.76 333.74 250 305.53"/><path class="cls-6" d="M145.86,470.3l.09.05a48.61,48.61,0,0,0,23.3-18.53h0a48.43,48.43,0,0,0,80.69,0h0a48.43,48.43,0,0,0,80.69,0h0a48.61,48.61,0,0,0,23.3,18.53l.09-.05c52.38-34.9,52.13-128.71,52.13-128.71L250,305.53,93.73,341.59S93.48,435.4,145.86,470.3Z"/><path class="cls-6" d="M250,119.32h0A22.34,22.34,0,0,1,272.34,97h56.94a15.5,15.5,0,0,0,15.5-15.49h0A15.5,15.5,0,0,0,329.28,66H305.77a26.09,26.09,0,0,1-26.09-26.56l.24-12.89"/><line class="cls-6" x1="250" y1="305.53" x2="250" y2="269.93"/></svg>