<svg id="Layer_1" data-name="Layer 1" xmlns="http://www.w3.org/2000/svg" viewBox="0 0 500 500"><defs><style>.cls-1{fill:#5d7a0f;}.cls-2{fill:#934c12;}.cls-3{fill:#7f4011;}.cls-4{fill:#eab671;}.cls-5{fill:#c99965;}.cls-6{fill:#7cb212;}.cls-7{fill:#719911;}.cls-8{fill:#88cc12;}.cls-9{fill:none;stroke:#000;stroke-linecap:round;stroke-linejoin:round;stroke-width:15px;}</style></defs><title>palm</title><circle class="cls-1" cx="321.58" cy="409.55" r="30.13"/><path class="cls-1" d="M222.42,182.41l-20.85-15.74a30.13,30.13,0,1,0,47.87,2.66Z"/><path class="cls-1" d="M299.15,203.25l-25.73-38.46a30.13,30.13,0,1,0,40.13,36.78Z"/><path class="cls-2" d="M254.62,192.7a30.53,30.53,0,0,1,.34-4.52l-.41-.05a30.12,30.12,0,0,1-30.06,28.21h-.19c-32.58,80.17-40.2,155-41.71,195.29a439.67,439.67,0,0,1,61-5c-3.65-74.88,8.62-142.06,21.92-190.74A30.08,30.08,0,0,1,254.62,192.7Z"/><path class="cls-3" d="M265.52,215.9a30.08,30.08,0,0,1-10.9-23.2,30.53,30.53,0,0,1,.34-4.52l-.41-.05a30.09,30.09,0,0,1-12,22.2C230.63,260.2,217.33,342,218.85,407.65q12-.82,24.75-1C240,331.76,252.22,264.58,265.52,215.9Z"/><path class="cls-4" d="M350.46,418.16a30.13,30.13,0,0,1-59-8.61c0-.36,0-.72,0-1.09-13.15-1.2-27-1.87-41.48-1.87C84.63,406.59,8.17,492,8.17,492H491.83S446.58,441.5,350.46,418.16Z"/><path class="cls-5" d="M219.48,408.46c0,.37,33.49,3.17,59,9.7,5.45,1.32,10.74,2.74,15.86,4.22a30.07,30.07,0,0,1-2.86-12.83c0-.36,0-.72,0-1.09-13.15-1.2-27-1.87-41.48-1.87-12.53,0-24.54.5-36.05,1.41C215.81,408.14,217.65,408.3,219.48,408.46Z"/><path class="cls-5" d="M350.46,418.16A30.19,30.19,0,0,1,334.6,436.7C392.31,461.3,419.83,492,419.83,492h72S446.58,441.5,350.46,418.16Z"/><path class="cls-6" d="M284.5,126.65C262.7,83.13,213.25,14.51,116.18,8L131.7,50l46.88,14,16.22,42.45L236.64,113l8.68,31.34c4,2.11,7.5,4.13,10.58,6A236.83,236.83,0,0,1,284.5,126.65Z"/><path class="cls-7" d="M270,137.68c4.12-3.38,9-7.13,14.46-11C262.7,83.13,213.25,14.51,116.18,8l6.94,18.77C204.22,39.5,248.47,97.1,270,137.68Z"/><path class="cls-6" d="M255.9,150.3c3.92,2.35,7.09,4.39,9.4,5.95L275,159a241.31,241.31,0,0,1,36.24.62L331.48,138l40.16,13.5,34-30.12,48,9.34,33.2-30.05C367.52,48.19,272.3,134.16,255.9,150.3Z"/><path class="cls-7" d="M270.23,157.66c29.42-25.28,108.24-80.39,205.32-46.76l11.34-10.27c-119.37-52.44-214.59,33.53-231,49.67,3.92,2.35,7.09,4.39,9.4,5.95Z"/><path class="cls-8" d="M269.85,159.45s-119.5-90.74-239-11.3L68.72,172l45.7-17.45,38.7,23.82,37.24-20.2,32.06,24.2Z"/><path class="cls-6" d="M254.23,167l15.62-7.56s-119.5-90.74-239-11.3l14.27,9C133.83,107.85,219.9,146.88,254.23,167Z"/><path class="cls-8" d="M269.85,159.45s149-17.83,211.89,111.14L437,272l-30.6-38.16-45.43,1-21.91-36.26-39.9,4.66Z"/><path class="cls-6" d="M462,271.23l19.7-.64c-62.9-129-211.89-111.14-211.89-111.14l9.52,14.22C320.7,174.16,411.69,185.6,462,271.23Z"/><path class="cls-9" d="M269.85,159.45s-119.5-90.74-239-11.3L68.72,172l45.7-17.45,38.7,23.82,37.24-20.2,32.06,24.2Z"/><path class="cls-9" d="M269.85,159.45s149-17.83,211.89,111.14L437,272l-30.6-38.16-45.43,1-21.91-36.26-39.9,4.66Z"/><path class="cls-9" d="M284.5,126.65C262.7,83.13,213.25,14.51,116.18,8L131.7,50l46.88,14,16.22,42.45L236.64,113l8.68,31.34c4,2.11,7.5,4.13,10.58,6A236.83,236.83,0,0,1,284.5,126.65Z"/><path class="cls-9" d="M255.9,150.3c3.92,2.35,7.09,4.39,9.4,5.95L275,159a241.31,241.31,0,0,1,36.24.62L331.48,138l40.16,13.5,34-30.12,48,9.34,33.2-30.05C367.52,48.19,272.3,134.16,255.9,150.3Z"/><circle class="cls-9" cx="321.58" cy="409.55" r="30.13"/><path class="cls-9" d="M222.42,182.41l-20.85-15.74a30.13,30.13,0,1,0,47.87,2.66Z"/><path class="cls-9" d="M299.15,203.25l-25.73-38.46a30.13,30.13,0,1,0,40.13,36.78Z"/><path class="cls-9" d="M254.62,192.7a30.53,30.53,0,0,1,.34-4.52l-.41-.05a30.12,30.12,0,0,1-30.06,28.21h-.19c-32.58,80.17-40.2,155-41.71,195.29a439.67,439.67,0,0,1,61-5c-3.65-74.88,8.62-142.06,21.92-190.74A30.08,30.08,0,0,1,254.62,192.7Z"/><path class="cls-9" d="M350.46,418.16a30.13,30.13,0,0,1-59-8.61c0-.36,0-.72,0-1.09-13.15-1.2-27-1.87-41.48-1.87C84.63,406.59,8.17,492,8.17,492H491.83S446.58,441.5,350.46,418.16Z"/></svg>