<svg xmlns="http://www.w3.org/2000/svg" width="25" height="21" viewBox="0 0 25 21">
  <g fill="none" fill-rule="evenodd">
    <path fill="#FFF" d="M23.5001,20.5007 L1.5001,20.5007 C0.9501,20.5007 0.5001,20.0507 0.5001,19.5007 L0.5001,2.5007 C0.5001,1.9507 0.9501,1.5007 1.5001,1.5007 L23.5001,1.5007 C24.0501,1.5007 24.5001,1.9507 24.5001,2.5007 L24.5001,19.5007 C24.5001,20.0507 24.0501,20.5007 23.5001,20.5007 Z"/>
    <path fill="#000" d="M24.0001,19.5007 C24.0001,19.7757 23.7751,20.0007 23.5001,20.0007 L19.0001,20.0007 L19.0001,13.0007 L20.5001,13.0007 C20.7761,13.0007 21.0001,12.7767 21.0001,12.5007 L21.0001,2.0007 L23.5001,2.0007 C23.7751,2.0007 24.0001,2.2257 24.0001,2.5007 L24.0001,19.5007 Z M13.0001,13.0007 L14.5001,13.0007 C14.7761,13.0007 15.0001,12.7767 15.0001,12.5007 L15.0001,2.0007 L16.0001,2.0007 L16.0001,12.5007 C16.0001,12.7767 16.2241,13.0007 16.5001,13.0007 L18.0001,13.0007 L18.0001,20.0007 L13.0001,20.0007 L13.0001,13.0007 Z M7.0001,13.0007 L8.5001,13.0007 C8.7761,13.0007 9.0001,12.7767 9.0001,12.5007 L9.0001,2.0007 L10.0001,2.0007 L10.0001,12.5007 C10.0001,12.7767 10.2241,13.0007 10.5001,13.0007 L12.0001,13.0007 L12.0001,20.0007 L7.0001,20.0007 L7.0001,13.0007 Z M1.0001,19.5007 L1.0001,2.5007 C1.0001,2.2257 1.2251,2.0007 1.5001,2.0007 L4.0001,2.0007 L4.0001,12.5007 C4.0001,12.7767 4.2241,13.0007 4.5001,13.0007 L6.0001,13.0007 L6.0001,20.0007 L1.5001,20.0007 C1.2251,20.0007 1.0001,19.7757 1.0001,19.5007 L1.0001,19.5007 Z M23.5001,1.0007 L21.0001,1.0007 L21.0001,0.5007 C21.0001,0.2247 20.7761,0.0007 20.5001,0.0007 L16.5001,0.0007 C16.2241,0.0007 16.0001,0.2247 16.0001,0.5007 L16.0001,1.0007 L15.0001,1.0007 L15.0001,0.5007 C15.0001,0.2247 14.7761,0.0007 14.5001,0.0007 L10.5001,0.0007 C10.2241,0.0007 10.0001,0.2247 10.0001,0.5007 L10.0001,1.0007 L9.0001,1.0007 L9.0001,0.5007 C9.0001,0.2247 8.7761,0.0007 8.5001,0.0007 L4.5001,0.0007 C4.2241,0.0007 4.0001,0.2247 4.0001,0.5007 L4.0001,1.0007 L1.5001,1.0007 C0.6731,1.0007 0.0001,1.6737 0.0001,2.5007 L0.0001,19.5007 C0.0001,20.3277 0.6731,21.0007 1.5001,21.0007 L6.5001,21.0007 L12.5001,21.0007 L18.5001,21.0007 L23.5001,21.0007 C24.3271,21.0007 25.0001,20.3277 25.0001,19.5007 L25.0001,2.5007 C25.0001,1.6737 24.3271,1.0007 23.5001,1.0007 L23.5001,1.0007 Z"/>
    <path fill="#000" d="M24.5001,17.0007 C24.2241,17.0007 24.0001,17.2247 24.0001,17.5007 C24.0001,17.7757 23.7751,18.0007 23.5001,18.0007 L1.5001,18.0007 C1.2251,18.0007 1.0001,17.7757 1.0001,17.5007 C1.0001,17.2247 0.7761,17.0007 0.5001,17.0007 C0.2241,17.0007 0.0001,17.2247 0.0001,17.5007 L0.0001,19.5007 C0.0001,20.3277 0.6731,21.0007 1.5001,21.0007 L23.5001,21.0007 C24.3271,21.0007 25.0001,20.3277 25.0001,19.5007 L25.0001,17.5007 C25.0001,17.2247 24.7761,17.0007 24.5001,17.0007" opacity=".24"/>
  </g>
</svg>
