<svg id="icons" xmlns="http://www.w3.org/2000/svg" viewBox="0 0 128 128"><defs><style>.cls-1{opacity:0.08;}.cls-2,.cls-4{fill:none;}.cls-2,.cls-3,.cls-4,.cls-5{stroke:#222;stroke-linecap:round;stroke-linejoin:round;}.cls-2{stroke-width:2px;}.cls-3{fill:#04b5ab;}.cls-3,.cls-4,.cls-5{stroke-width:4px;}.cls-5{fill:#ffd300;}</style></defs><title>pool-chair</title><g class="cls-1"><line class="cls-2" x1="45" y1="17" x2="73" y2="17"/><line class="cls-2" x1="64" y1="8" x2="106" y2="8"/><line class="cls-2" x1="122" y1="35" x2="79" y2="35"/><line class="cls-2" x1="97" y1="68" x2="113" y2="68"/><line class="cls-2" x1="28" y1="84" x2="11" y2="84"/><line class="cls-2" x1="15" y1="42" x2="28" y2="42"/><line class="cls-2" x1="35" y1="109" x2="56" y2="109"/><line class="cls-2" x1="53" y1="102" x2="82" y2="102"/><line class="cls-2" x1="109" y1="121" x2="87" y2="121"/></g><rect class="cls-3" x="28" y="77" width="48" height="10" rx="5" ry="5"/><path class="cls-3" d="M76,87H33a5,5,0,0,1,0-10H73.71l17.5-20.27a5,5,0,1,1,7.57,6.54l-19,22A5,5,0,0,1,76,87Z"/><line class="cls-4" x1="32" y1="94" x2="38.83" y2="87.17"/><line class="cls-4" x1="99" y1="94" x2="92.17" y2="87.17"/><polyline class="cls-4" points="97.93 64.25 92 87 100 87"/><line class="cls-4" x1="92" y1="87" x2="76" y2="87"/><circle class="cls-5" cx="49" cy="49" r="6"/><line class="cls-4" x1="49" y1="34" x2="49" y2="37"/><line class="cls-4" x1="38.39" y1="38.39" x2="40.51" y2="40.51"/><line class="cls-4" x1="34" y1="49" x2="37" y2="49"/><line class="cls-4" x1="38.39" y1="59.61" x2="40.51" y2="57.49"/><line class="cls-4" x1="49" y1="64" x2="49" y2="61"/><line class="cls-4" x1="59.61" y1="59.61" x2="57.49" y2="57.49"/><line class="cls-4" x1="64" y1="49" x2="61" y2="49"/><line class="cls-4" x1="59.61" y1="38.39" x2="57.49" y2="40.51"/></svg>