<svg id="Layer_1" data-name="Layer 1" xmlns="http://www.w3.org/2000/svg" viewBox="0 0 500 500"><defs><style>.cls-1{fill:#1ac9ff;}.cls-2{fill:#00aaed;}.cls-3{fill:none;stroke:#000;stroke-linecap:round;stroke-linejoin:round;stroke-width:15px;}.cls-4{fill:#fff;}.cls-5{fill:#efefef;}.cls-6{fill:#d3d3d3;}.cls-7{fill:#ffd72e;}.cls-8{fill:#915519;}.cls-9{fill:#ffbf0b;}.cls-10{fill:#774217;}</style></defs><title>snow-globe_1</title><path class="cls-1" d="M113,393.76H392.3a217.31,217.31,0,0,0,78.14-167.12c0-120.29-97.51-217.81-217.81-217.81S34.82,106.35,34.82,226.64A217.32,217.32,0,0,0,113,393.76Z"/><path class="cls-2" d="M252.29,8.83q-9.47,0-18.75.81c111.51,9.51,199.06,103,199.06,217a217.31,217.31,0,0,1-78.14,167.12H392A217.31,217.31,0,0,0,470.1,226.64C470.1,106.35,372.59,8.83,252.29,8.83Z"/><path class="cls-3" d="M113,393.76H392.3a217.31,217.31,0,0,0,78.14-167.12c0-120.29-97.51-217.81-217.81-217.81S34.82,106.35,34.82,226.64A217.32,217.32,0,0,0,113,393.76Z"/><circle class="cls-4" cx="120.91" cy="129.9" r="11.92"/><circle class="cls-4" cx="192.26" cy="75.92" r="11.92"/><circle class="cls-4" cx="305.92" cy="87.83" r="11.92"/><circle class="cls-4" cx="132.83" cy="205.74" r="11.92"/><circle class="cls-4" cx="362.35" cy="205.74" r="11.92"/><circle class="cls-4" cx="89.19" cy="277.18" r="11.92"/><circle class="cls-4" cx="386.18" cy="125.03" r="11.92"/><circle class="cls-4" cx="398.1" cy="273.14" r="11.92"/><path class="cls-5" d="M161.87,320.55A90.61,90.61,0,0,0,199,393.76h107.3a90.76,90.76,0,0,0-2.58-148.25,68.76,68.76,0,1,0-102.14,0A90.67,90.67,0,0,0,161.87,320.55Z"/><path class="cls-6" d="M303.7,245.51a68.75,68.75,0,0,0-51.07-114.79A69.19,69.19,0,0,0,239.2,132a68.75,68.75,0,0,1,37.64,113.47,90.78,90.78,0,0,1,2.58,148.25h26.86a90.76,90.76,0,0,0-2.58-148.25Z"/><path class="cls-3" d="M161.87,320.55A90.61,90.61,0,0,0,199,393.76h107.3a90.76,90.76,0,0,0-2.58-148.25,68.76,68.76,0,1,0-102.14,0A90.67,90.67,0,0,0,161.87,320.55Z"/><circle cx="232.53" cy="197.82" r="11.92"/><circle cx="274.6" cy="197.82" r="11.92"/><circle cx="252.63" cy="282.49" r="11.92"/><circle cx="252.63" cy="321.63" r="11.92"/><rect class="cls-7" x="112.72" y="393.76" width="279.14" height="36.68"/><rect class="cls-8" x="88.85" y="430.45" width="326.9" height="60.76" rx="11.47" ry="11.47"/><rect class="cls-9" x="361.97" y="393.76" width="29.9" height="36.68"/><path class="cls-10" d="M404.27,430.45H374.38a11.46,11.46,0,0,1,11.46,11.46v37.83a11.47,11.47,0,0,1-11.46,11.47h29.89a11.47,11.47,0,0,0,11.47-11.47V441.91A11.46,11.46,0,0,0,404.27,430.45Z"/><rect class="cls-3" x="88.85" y="430.45" width="326.9" height="60.76" rx="11.47" ry="11.47"/><rect class="cls-3" x="112.72" y="393.76" width="279.14" height="36.68"/></svg>