<svg id="icons" xmlns="http://www.w3.org/2000/svg" viewBox="0 0 48 48"><title>speech-bubbles</title><g id="speech-bubbles"><polygon points="20 35 34 35 42 43 42 35 46 35 46 17 20 17 20 35" fill="#60deae"/><polygon points="36 29 16 29 6 39 6 29 2 29 2 5 36 5 36 29" fill="#fff"/><rect x="20" y="17" width="16" height="12" fill="#ffd259"/><path d="M35,29H16L6,39V29H3a1,1,0,0,1-1-1V6A1,1,0,0,1,3,5H35a1,1,0,0,1,1,1V28A1,1,0,0,1,35,29Z" fill="none" stroke="#423e5e" stroke-linecap="round" stroke-linejoin="round" stroke-width="2"/><path d="M20,29v5a1,1,0,0,0,1,1H34l8,8V35h3a1,1,0,0,0,1-1V18a1,1,0,0,0-1-1H36" fill="none" stroke="#423e5e" stroke-linecap="round" stroke-linejoin="round" stroke-width="2"/><path d="M32,17H21a1,1,0,0,0-1,1v7" fill="none" stroke="#423e5e" stroke-linecap="round" stroke-linejoin="round" stroke-width="2"/></g></svg>