<svg id="Layer_1" data-name="Layer 1" xmlns="http://www.w3.org/2000/svg" viewBox="0 0 500 500"><defs><style>.cls-1{fill:#fcd32b;}.cls-2{fill:#efad0a;}.cls-3{fill:#934c12;}.cls-4{fill:#7f4011;}.cls-5{fill:none;stroke:#000;stroke-linecap:round;stroke-linejoin:round;stroke-width:15px;}</style></defs><title>Sailboat</title><path class="cls-1" d="M289.43,380.27s47.43-57.64,182.89-37.17c0,0-37.93-192.14-182.89-299.55Z"/><path class="cls-2" d="M435.49,339.24c11.48.64,23.74,1.89,36.83,3.86,0,0-37.93-192.14-182.89-299.55V73.86C394.23,173.42,429.85,314.28,435.49,339.24Z"/><path class="cls-1" d="M289.43,43.55S45.33,80,30.11,380.27c0,0,134.69-46.24,259.32,0C289.43,380.27,175.34,279.81,289.43,43.55Z"/><path class="cls-2" d="M289.43,43.55S272.83,46,248,55c-82.72,179.68-31.74,278.13-6.39,311.81a315.21,315.21,0,0,1,47.79,13.44S175.34,279.81,289.43,43.55Z"/><path class="cls-3" d="M7.89,414.59H492.11A117.32,117.32,0,0,1,384,486.35H211.63A325.11,325.11,0,0,1,7.89,414.59Z"/><path class="cls-4" d="M438.11,414.59h0A117.32,117.32,0,0,1,330,486.35h54a117.32,117.32,0,0,0,108.11-71.76h-54Z"/><path class="cls-5" d="M7.89,414.59H492.11A117.32,117.32,0,0,1,384,486.35H211.63A325.11,325.11,0,0,1,7.89,414.59Z"/><line class="cls-5" x1="289.43" y1="414.59" x2="289.43" y2="13.65"/><path class="cls-5" d="M289.43,43.55S45.33,80,30.11,380.27c0,0,134.69-46.24,259.32,0C289.43,380.27,175.34,279.81,289.43,43.55Z"/><path class="cls-5" d="M289.43,380.27s47.43-57.64,182.89-37.17c0,0-37.93-192.14-182.89-299.55Z"/></svg>