<svg id="Layer_1" data-name="Layer 1" xmlns="http://www.w3.org/2000/svg" viewBox="0 0 500 500"><defs><style>.cls-1{fill:#88cc12;}.cls-2{fill:#fcd32b;}.cls-3{fill:#eaeaea;}.cls-4{fill:#cecece;}.cls-5{fill:#efad0a;}.cls-6{fill:none;stroke:#000;stroke-linecap:round;stroke-linejoin:round;stroke-width:15px;}</style></defs><title>soft-drink</title><path class="cls-1" d="M86.94,28.15a102.08,102.08,0,0,0-27.6,141.69L228.63,55.75A102.07,102.07,0,0,0,86.94,28.15Z"/><path class="cls-2" d="M101.56,49.85A75.91,75.91,0,0,0,81,155.22L206.93,70.37A75.91,75.91,0,0,0,101.56,49.85Z"/><rect class="cls-3" x="194.8" y="456.23" width="179.86" height="35.77"/><polygon class="cls-3" points="374.72 456.23 194.74 456.23 143.99 112.79 425.48 112.79 374.72 456.23"/><polygon class="cls-4" points="389.48 112.79 338.72 456.23 374.72 456.23 425.48 112.79 389.48 112.79"/><polygon class="cls-2" points="153.78 179.09 194.74 456.23 374.72 456.23 415.68 179.09 153.78 179.09"/><rect class="cls-4" x="338.66" y="456.23" width="36" height="35.77"/><polygon class="cls-5" points="379.68 179.09 338.72 456.23 374.72 456.23 415.68 179.09 379.68 179.09"/><polygon class="cls-6" points="374.72 456.23 194.74 456.23 143.99 112.79 425.48 112.79 374.72 456.23"/><polygon class="cls-6" points="153.78 179.09 194.74 456.23 374.72 456.23 415.68 179.09 153.78 179.09"/><rect class="cls-6" x="194.8" y="456.23" width="179.86" height="35.77"/><path class="cls-6" d="M300.63,404.77,368.66,27a23.09,23.09,0,0,1,26.8-18.63L458.1,19.62"/><polygon class="cls-6" points="374.72 456.23 194.74 456.23 143.99 112.79 425.48 112.79 374.72 456.23"/><path class="cls-6" d="M86.94,28.15a102.08,102.08,0,0,0-27.6,141.69L228.63,55.75A102.07,102.07,0,0,0,86.94,28.15Z"/><path class="cls-6" d="M101.56,49.85A75.91,75.91,0,0,0,81,155.22L206.93,70.37A75.91,75.91,0,0,0,101.56,49.85Z"/><line class="cls-6" x1="143.98" y1="112.79" x2="101.56" y2="49.85"/><line class="cls-6" x1="69.28" y1="99.34" x2="143.98" y2="112.79"/><line class="cls-6" x1="159.55" y1="38.51" x2="143.98" y2="112.79"/></svg>