<svg id="Layer_1" data-name="Layer 1" xmlns="http://www.w3.org/2000/svg" viewBox="0 0 500 500"><defs><style>.cls-1{fill:#fcd32b;}.cls-2{fill:#efad0a;}.cls-3{fill:#934c12;}.cls-4{fill:#cc986d;}.cls-5{fill:#cecece;}.cls-6{fill:#e51c5a;}.cls-7{fill:none;stroke:#000;stroke-linecap:round;stroke-linejoin:round;stroke-width:15px;}</style></defs><title>sunbed</title><path class="cls-1" d="M463.93,247.37h0a26.46,26.46,0,0,0-37.43,0l-104,104H54.79a26.47,26.47,0,0,0-26.47,26.47h0a26.47,26.47,0,0,0,26.47,26.47H344.6v-.23L463.93,284.8A26.48,26.48,0,0,0,463.93,247.37Z"/><path class="cls-2" d="M463.93,247.37a26.4,26.4,0,0,0-9.39-6.05,26.34,26.34,0,0,1-7.73,17.84L327.49,378.48v.23H37.67a26.54,26.54,0,0,1-9.33-1.7c0,.29,0,.58,0,.87h0a26.47,26.47,0,0,0,26.47,26.47H344.6v-.23L463.93,284.8A26.48,26.48,0,0,0,463.93,247.37Z"/><rect class="cls-3" x="44.04" y="448.57" width="46.09" height="43.08"/><rect class="cls-3" x="409.88" y="448.57" width="46.09" height="43.08"/><path class="cls-4" d="M25.51,404.35h449A16.62,16.62,0,0,1,491.11,421v27.61a0,0,0,0,1,0,0H8.89a0,0,0,0,1,0,0V421A16.62,16.62,0,0,1,25.51,404.35Z"/><polygon class="cls-5" points="250 101.39 342.6 101.39 250 8.35 157.4 101.39 250 101.39"/><path class="cls-5" d="M157.4,101.39,171,133.61a17.17,17.17,0,0,0,15.82,10.5H313.2A17.17,17.17,0,0,0,329,133.61l13.58-32.22Z"/><polygon class="cls-6" points="250 8.35 342.6 101.39 471.83 101.39 250 8.35"/><path class="cls-6" d="M471.83,101.39v25.55a17.17,17.17,0,0,1-17.17,17.17H368.91a17.17,17.17,0,0,1-16.34-11.89l-10-30.83Z"/><polygon class="cls-6" points="250 8.35 157.4 101.39 28.17 101.39 250 8.35"/><path class="cls-6" d="M28.17,101.39v25.55a17.17,17.17,0,0,0,17.17,17.17h85.75a17.17,17.17,0,0,0,16.34-11.89l10-30.83Z"/><path class="cls-7" d="M25.51,404.35h449A16.62,16.62,0,0,1,491.11,421v27.61a0,0,0,0,1,0,0H8.89a0,0,0,0,1,0,0V421A16.62,16.62,0,0,1,25.51,404.35Z"/><path class="cls-7" d="M463.93,247.37h0a26.46,26.46,0,0,0-37.43,0l-104,104H54.79a26.47,26.47,0,0,0-26.47,26.47h0a26.47,26.47,0,0,0,26.47,26.47H344.6v-.23L463.93,284.8A26.48,26.48,0,0,0,463.93,247.37Z"/><rect class="cls-7" x="44.04" y="448.57" width="46.09" height="43.08"/><rect class="cls-7" x="409.88" y="448.57" width="46.09" height="43.08"/><line class="cls-7" x1="250" y1="144.11" x2="250" y2="351.41"/><polygon class="cls-7" points="250 101.39 342.6 101.39 250 8.35 157.4 101.39 250 101.39"/><path class="cls-7" d="M157.4,101.39,171,133.61a17.17,17.17,0,0,0,15.82,10.5H313.2A17.17,17.17,0,0,0,329,133.61l13.58-32.22Z"/><polygon class="cls-7" points="250 8.35 157.4 101.39 28.17 101.39 250 8.35"/><path class="cls-7" d="M28.17,101.39v25.55a17.17,17.17,0,0,0,17.17,17.17h85.75a17.17,17.17,0,0,0,16.34-11.89l10-30.83Z"/><polygon class="cls-7" points="250 8.35 342.6 101.39 471.83 101.39 250 8.35"/><path class="cls-7" d="M471.83,101.39v25.55a17.17,17.17,0,0,1-17.17,17.17H368.91a17.17,17.17,0,0,1-16.34-11.89l-10-30.83Z"/></svg>