<svg id="Layer_1" data-name="Layer 1" xmlns="http://www.w3.org/2000/svg" viewBox="0 0 500 500"><defs><style>.cls-1{fill:#fcd32b;}.cls-2{fill:#efad0a;}.cls-3{fill:#fc8215;}.cls-4{fill:#ea6d07;}.cls-5{fill:none;stroke:#000;stroke-linecap:round;stroke-linejoin:round;stroke-width:15px;}</style></defs><title>surfboard</title><path class="cls-1" d="M73,427l-.76,43.66C72,483.92,85.56,495,98,491.55c51.13-14,155.85-94.78,213.44-152.37C409.8,240.79,526,60.15,482.94,17.06S259.21,90.2,160.82,188.58C103.23,246.17,22.45,350.89,8.45,402c-3.4,12.42,7.63,26,20.89,25.74Z"/><path class="cls-2" d="M482.94,17.06C478.57,12.7,472.8,10,465.85,8.69c11.37,61.74-91.46,216.61-179.89,305C228.37,371.31,123.65,452.1,72.52,466.09l-.2.05-.08,4.52C72,483.92,85.56,495,98,491.55c51.13-14,155.85-94.78,213.44-152.37C409.8,240.79,526,60.15,482.94,17.06Z"/><path class="cls-3" d="M275.72,92.77c-20.9,14.8-41.51,30.66-60.91,46.82l121.59,24,24,121.59c16.16-19.4,32-40,46.82-60.91L385.55,114.45Z"/><path class="cls-3" d="M111.58,242.7c-13.76,16.36-27.48,33.67-40.25,50.9l112.79,22.28s12,61,22.28,112.79c17.23-12.77,34.54-26.49,50.9-40.25l-24-121.69Z"/><path class="cls-4" d="M249.3,347.94c-15.84,13.94-33.07,28.2-50.59,41.8,2.53,12.84,5.17,26.17,7.69,38.93,17.23-12.77,34.54-26.49,50.9-40.25C254.76,375.6,252,361.66,249.3,347.94Z"/><path class="cls-4" d="M351.38,239.46c3,15.38,6.18,31.27,9,45.73,16.16-19.4,32-40,46.82-60.91-3.19-16.17-6.52-33-9.59-48.56C383.35,197.23,367.66,218.82,351.38,239.46Z"/><path class="cls-5" d="M73,427l-.76,43.66C72,483.92,85.56,495,98,491.55c51.13-14,155.85-94.78,213.44-152.37C409.8,240.79,526,60.15,482.94,17.06S259.21,90.2,160.82,188.58C103.23,246.17,22.45,350.89,8.45,402c-3.4,12.42,7.63,26,20.89,25.74Z"/><line class="cls-5" x1="107.38" y1="392.62" x2="381.76" y2="118.24"/></svg>